<svg width="983" height="619" viewBox="0 0 983 619" fill="none" xmlns="http://www.w3.org/2000/svg">
<path d="M255 0H958C971.807 0 983 11.1929 983 25V594C983 607.807 971.807 619 958 619H255V0Z" fill="#70C995" fill-opacity="0.37"/>
<path d="M0 26C0 12.1929 11.1929 1 25 1H239V619H25C11.1929 619 0 607.807 0 594V26Z" fill="#70C995"/>
<g filter="url(#filter0_d_2_2)">
<path d="M119.144 147.999C93.2989 147.821 70.8268 126.371 71.001 99.1205C71.1685 72.8992 92.9582 50.8223 119.921 51.0011C146.125 51.1752 168.232 72.9261 167.998 99.5736C168.215 125.979 145.999 148.185 119.144 147.999ZM119.144 147.999C93.2989 147.821 70.8268 126.371 71.001 99.1205C71.1685 72.8992 92.9582 50.8223 119.921 51.0011C146.125 51.1752 168.232 72.9261 167.998 99.5736C168.215 125.979 145.999 148.185 119.144 147.999Z" fill="white"/>
<path d="M119.191 141.558C96.7779 141.403 77.2912 122.802 77.4423 99.1709C77.5877 76.4317 96.4835 57.2867 119.865 57.4423C142.588 57.5934 161.76 76.4559 161.557 99.5641C161.745 122.463 142.48 141.719 119.191 141.558ZM119.191 141.558C96.7779 141.403 77.2912 122.802 77.4423 99.1709C77.5877 76.4317 96.4835 57.2867 119.865 57.4423C142.588 57.5934 161.76 76.4559 161.557 99.5641C161.745 122.463 142.48 141.719 119.191 141.558Z" fill="#49A32B"/>
<path d="M135.159 99.4834C135.051 101.488 133.3 103.152 131.574 102.862C131.566 102.862 131.557 102.862 131.549 102.862C129.637 102.864 128.085 101.317 128.083 99.405C128.148 97.4882 129.738 95.9775 131.655 96.01C133.567 96.0193 135.262 97.6347 135.159 99.4834ZM104.42 118.908C105.141 118.929 105.862 118.913 106.693 118.913V124.137C101.527 125.01 97.2714 123.544 96.2271 119.176C95.8695 117.571 95.6497 115.937 95.5692 114.294C95.4583 112.554 95.6503 110.795 95.5177 109.058C95.1503 104.279 94.5311 102.648 89.9453 102.422V96.4743C90.274 96.3974 90.6073 96.3407 90.9427 96.303C93.4569 96.1792 94.5167 95.4084 95.0791 92.9318C95.335 91.5402 95.4867 90.1317 95.5316 88.7174C95.7307 85.9828 95.6601 83.2039 96.1156 80.5137C96.774 76.6234 99.1892 74.7334 103.179 74.5219C104.314 74.461 105.452 74.5126 106.739 74.5126V79.8517C106.209 79.8894 105.724 79.9663 105.242 79.9518C101.991 79.8522 101.823 80.9595 101.586 83.6507C101.438 85.3384 101.642 87.055 101.527 88.7484C101.407 90.4335 101.181 92.1098 100.852 93.7671C100.383 96.1689 98.9065 97.9551 96.8602 99.471C100.833 102.056 101.285 106.073 101.542 110.151C101.681 112.343 101.618 114.55 101.84 116.731C102.014 118.424 102.672 118.856 104.42 118.908ZM107.768 96.01C107.789 96.01 107.809 96.01 107.829 96.01C109.729 96.0414 111.244 97.6063 111.212 99.5061C111.212 99.5685 111.21 99.6304 111.206 99.6923C111.1 101.549 109.508 102.967 107.652 102.86C107.577 102.861 107.503 102.86 107.428 102.856C105.538 102.762 104.081 101.154 104.175 99.2631C104.269 97.3726 105.878 95.9161 107.768 96.01ZM119.604 96.01C121.681 95.994 123.06 97.3401 123.071 99.3936C123.083 101.502 121.775 102.852 119.711 102.86C117.612 102.87 116.23 101.542 116.219 99.5009C116.213 99.3967 116.211 99.2925 116.214 99.1883C116.273 97.3747 117.79 95.9517 119.604 96.01ZM144.384 93.4085C144.937 95.4723 146.012 96.1978 148.185 96.2968C148.541 96.3133 148.896 96.3737 149.384 96.4279V102.374C149.119 102.46 148.849 102.525 148.574 102.568C145.662 102.749 144.335 103.943 144.041 106.863C143.853 108.726 143.869 110.611 143.74 112.481C143.685 114.534 143.499 116.582 143.18 118.611C142.437 122.288 140.142 124.122 136.349 124.346C135.128 124.419 133.899 124.358 132.582 124.358V119.043C133.291 118.999 133.916 118.939 134.543 118.924C136.809 118.87 137.61 118.139 137.721 115.889C137.844 113.416 137.898 110.941 138.008 108.468C138.169 104.893 139.148 101.7 142.478 99.4705C140.572 98.112 139.042 96.4666 138.646 94.248C138.167 91.5588 138.012 88.8103 137.754 86.0835C137.626 84.7203 137.633 83.3453 137.5 81.9831C137.356 80.5127 136.346 80.0039 135.007 79.9709C134.241 79.9523 133.471 79.9673 132.491 79.9673V74.7778C138.746 73.7392 143.067 75.8205 143.469 81.8057C143.637 84.3189 143.612 86.844 143.773 89.3572C143.844 90.7245 144.048 92.0815 144.384 93.4085Z" fill="white"/>
</g>
<g filter="url(#filter1_d_2_2)">
<rect x="289" y="182" width="660" height="65" rx="10" fill="#F0FAF4"/>
<rect x="298" y="194" width="84" height="42" rx="10" fill="#70C995"/>
</g>
<g filter="url(#filter2_d_2_2)">
<rect x="289" y="279" width="660" height="65" rx="10" fill="#FDF6ED"/>
<rect x="298" y="291" width="84" height="42" rx="10" fill="#EFA54A"/>
</g>
<g filter="url(#filter3_d_2_2)">
<rect x="289" y="372" width="660" height="65" rx="10" fill="#F1F7FE"/>
<rect x="298" y="384" width="84" height="42" rx="10" fill="#74ADF8"/>
</g>
<g filter="url(#filter4_d_2_2)">
<path d="M37.3091 252.016C37.1898 250.899 36.687 250.03 35.8006 249.408C34.9228 248.786 33.7807 248.474 32.3745 248.474C31.3858 248.474 30.5378 248.624 29.8304 248.922C29.123 249.22 28.5819 249.625 28.2069 250.136C27.8319 250.648 27.6401 251.232 27.6316 251.888C27.6316 252.433 27.7551 252.906 28.0023 253.307C28.258 253.707 28.6032 254.048 29.0378 254.33C29.4725 254.602 29.954 254.832 30.4824 255.02C31.0108 255.207 31.5435 255.365 32.0804 255.493L34.535 256.107C35.5236 256.337 36.4739 256.648 37.3858 257.04C38.3063 257.432 39.1287 257.926 39.8532 258.523C40.5861 259.119 41.1657 259.839 41.5918 260.683C42.0179 261.527 42.231 262.516 42.231 263.649C42.231 265.183 41.839 266.534 41.0549 267.702C40.2708 268.861 39.1373 269.768 37.6543 270.425C36.1799 271.072 34.3944 271.396 32.2978 271.396C30.2608 271.396 28.4924 271.081 26.9924 270.45C25.5009 269.82 24.3333 268.899 23.4895 267.689C22.6543 266.479 22.2026 265.004 22.1344 263.266H26.8006C26.8688 264.178 27.15 264.936 27.6444 265.541C28.1387 266.146 28.7821 266.598 29.5748 266.896C30.3759 267.195 31.2708 267.344 32.2594 267.344C33.2907 267.344 34.1941 267.19 34.9696 266.884C35.7537 266.568 36.3674 266.134 36.8105 265.58C37.2537 265.017 37.4796 264.361 37.4881 263.611C37.4796 262.929 37.2793 262.366 36.8873 261.923C36.4952 261.472 35.9455 261.097 35.2381 260.798C34.5392 260.491 33.7211 260.219 32.7836 259.98L29.8049 259.213C27.6486 258.659 25.9441 257.82 24.6912 256.695C23.4469 255.561 22.8248 254.057 22.8248 252.182C22.8248 250.639 23.2424 249.288 24.0776 248.129C24.9213 246.97 26.0676 246.071 27.5165 245.432C28.9654 244.784 30.606 244.46 32.4384 244.46C34.2963 244.46 35.9242 244.784 37.3219 245.432C38.7282 246.071 39.8319 246.962 40.633 248.104C41.4341 249.237 41.8475 250.541 41.873 252.016H37.3091ZM50.3074 271L44.7591 251.364H49.4764L52.9281 265.17H53.1071L56.6355 251.364H61.3017L64.8301 265.094H65.0218L68.4224 251.364H73.1525L67.5914 271H62.7718L59.09 257.73H58.8216L55.1397 271H50.3074ZM82.0343 271.396C80.79 271.396 79.6692 271.175 78.6721 270.732C77.6834 270.28 76.8993 269.615 76.3198 268.737C75.7488 267.859 75.4632 266.777 75.4632 265.49C75.4632 264.382 75.6678 263.466 76.0769 262.741C76.486 262.017 77.0442 261.438 77.7516 261.003C78.459 260.568 79.2559 260.24 80.1422 260.018C81.0371 259.788 81.9618 259.622 82.9164 259.52C84.0669 259.401 85.0002 259.294 85.7161 259.2C86.432 259.098 86.9519 258.945 87.2757 258.74C87.6081 258.527 87.7743 258.199 87.7743 257.756V257.679C87.7743 256.716 87.4888 255.97 86.9178 255.442C86.3468 254.913 85.5243 254.649 84.4505 254.649C83.3169 254.649 82.4178 254.896 81.753 255.391C81.0968 255.885 80.6536 256.469 80.4235 257.142L76.1025 256.528C76.4434 255.335 77.0059 254.338 77.79 253.537C78.574 252.727 79.5328 252.122 80.6664 251.722C81.7999 251.312 83.0527 251.108 84.4249 251.108C85.3709 251.108 86.3127 251.219 87.2502 251.44C88.1877 251.662 89.0442 252.028 89.8198 252.54C90.5953 253.043 91.2175 253.729 91.6863 254.598C92.1635 255.467 92.4022 256.554 92.4022 257.858V271H87.9533V268.303H87.7999C87.5186 268.848 87.1223 269.359 86.611 269.837C86.1081 270.305 85.4732 270.685 84.7061 270.974C83.9476 271.256 83.057 271.396 82.0343 271.396ZM83.236 267.996C84.165 267.996 84.9703 267.812 85.6522 267.446C86.334 267.071 86.8581 266.577 87.2246 265.963C87.5996 265.349 87.7871 264.68 87.7871 263.956V261.642C87.6422 261.761 87.3951 261.872 87.0456 261.974C86.7047 262.077 86.3212 262.166 85.8951 262.243C85.4689 262.32 85.0471 262.388 84.6294 262.447C84.2118 262.507 83.8496 262.558 83.5428 262.601C82.8525 262.695 82.2346 262.848 81.6891 263.061C81.1436 263.274 80.7132 263.572 80.3979 263.956C80.0826 264.331 79.9249 264.817 79.9249 265.413C79.9249 266.266 80.236 266.909 80.8581 267.344C81.4803 267.778 82.2729 267.996 83.236 267.996ZM105.595 278.773C103.933 278.773 102.506 278.547 101.313 278.095C100.119 277.652 99.1607 277.055 98.4363 276.305C97.7118 275.555 97.209 274.724 96.9277 273.812L101.095 272.803C101.283 273.186 101.556 273.565 101.914 273.94C102.271 274.324 102.753 274.639 103.358 274.886C103.972 275.142 104.743 275.27 105.672 275.27C106.985 275.27 108.071 274.95 108.932 274.311C109.793 273.68 110.223 272.641 110.223 271.192V267.472H109.993C109.754 267.949 109.405 268.439 108.945 268.942C108.493 269.445 107.892 269.866 107.142 270.207C106.401 270.548 105.468 270.719 104.343 270.719C102.834 270.719 101.466 270.365 100.239 269.658C99.0201 268.942 98.0485 267.876 97.324 266.462C96.6081 265.038 96.2502 263.257 96.2502 261.118C96.2502 258.962 96.6081 257.142 97.324 255.659C98.0485 254.168 99.0243 253.038 100.252 252.271C101.479 251.496 102.847 251.108 104.355 251.108C105.506 251.108 106.452 251.304 107.193 251.696C107.943 252.08 108.54 252.544 108.983 253.089C109.426 253.626 109.763 254.134 109.993 254.611H110.249V251.364H114.813V271.32C114.813 272.999 114.412 274.388 113.611 275.487C112.81 276.587 111.715 277.409 110.325 277.955C108.936 278.5 107.36 278.773 105.595 278.773ZM105.634 267.088C106.614 267.088 107.449 266.849 108.139 266.372C108.83 265.895 109.354 265.209 109.712 264.314C110.07 263.419 110.249 262.345 110.249 261.092C110.249 259.857 110.07 258.774 109.712 257.845C109.362 256.916 108.843 256.196 108.152 255.685C107.47 255.165 106.631 254.905 105.634 254.905C104.602 254.905 103.742 255.173 103.051 255.71C102.361 256.247 101.841 256.984 101.492 257.922C101.142 258.851 100.968 259.908 100.968 261.092C100.968 262.294 101.142 263.347 101.492 264.25C101.85 265.145 102.374 265.844 103.064 266.347C103.763 266.841 104.619 267.088 105.634 267.088ZM128.095 278.773C126.433 278.773 125.006 278.547 123.813 278.095C122.619 277.652 121.661 277.055 120.936 276.305C120.212 275.555 119.709 274.724 119.428 273.812L123.595 272.803C123.783 273.186 124.056 273.565 124.414 273.94C124.771 274.324 125.253 274.639 125.858 274.886C126.472 275.142 127.243 275.27 128.172 275.27C129.485 275.27 130.571 274.95 131.432 274.311C132.293 273.68 132.723 272.641 132.723 271.192V267.472H132.493C132.254 267.949 131.905 268.439 131.445 268.942C130.993 269.445 130.392 269.866 129.642 270.207C128.901 270.548 127.968 270.719 126.843 270.719C125.334 270.719 123.966 270.365 122.739 269.658C121.52 268.942 120.548 267.876 119.824 266.462C119.108 265.038 118.75 263.257 118.75 261.118C118.75 258.962 119.108 257.142 119.824 255.659C120.548 254.168 121.524 253.038 122.752 252.271C123.979 251.496 125.347 251.108 126.855 251.108C128.006 251.108 128.952 251.304 129.693 251.696C130.443 252.08 131.04 252.544 131.483 253.089C131.926 253.626 132.263 254.134 132.493 254.611H132.749V251.364H137.313V271.32C137.313 272.999 136.912 274.388 136.111 275.487C135.31 276.587 134.215 277.409 132.825 277.955C131.436 278.5 129.86 278.773 128.095 278.773ZM128.134 267.088C129.114 267.088 129.949 266.849 130.639 266.372C131.33 265.895 131.854 265.209 132.212 264.314C132.57 263.419 132.749 262.345 132.749 261.092C132.749 259.857 132.57 258.774 132.212 257.845C131.862 256.916 131.343 256.196 130.652 255.685C129.97 255.165 129.131 254.905 128.134 254.905C127.102 254.905 126.242 255.173 125.551 255.71C124.861 256.247 124.341 256.984 123.992 257.922C123.642 258.851 123.468 259.908 123.468 261.092C123.468 262.294 123.642 263.347 123.992 264.25C124.35 265.145 124.874 265.844 125.564 266.347C126.263 266.841 127.119 267.088 128.134 267.088ZM150.749 271.384C148.78 271.384 147.08 270.974 145.648 270.156C144.225 269.33 143.129 268.162 142.362 266.653C141.595 265.136 141.212 263.351 141.212 261.297C141.212 259.277 141.595 257.504 142.362 255.979C143.138 254.445 144.22 253.251 145.61 252.399C146.999 251.538 148.631 251.108 150.506 251.108C151.716 251.108 152.858 251.304 153.932 251.696C155.014 252.08 155.969 252.676 156.796 253.486C157.631 254.295 158.287 255.327 158.764 256.58C159.242 257.824 159.48 259.307 159.48 261.028V262.447H143.385V259.328H155.044C155.036 258.442 154.844 257.653 154.469 256.963C154.094 256.264 153.57 255.714 152.896 255.314C152.232 254.913 151.456 254.713 150.57 254.713C149.624 254.713 148.793 254.943 148.077 255.403C147.361 255.855 146.803 256.452 146.402 257.193C146.01 257.926 145.81 258.732 145.801 259.609V262.332C145.801 263.474 146.01 264.455 146.428 265.273C146.845 266.082 147.429 266.705 148.179 267.139C148.929 267.565 149.807 267.778 150.813 267.778C151.486 267.778 152.095 267.685 152.641 267.497C153.186 267.301 153.659 267.016 154.06 266.641C154.46 266.266 154.763 265.801 154.968 265.247L159.289 265.733C159.016 266.875 158.496 267.872 157.729 268.724C156.97 269.568 155.999 270.224 154.814 270.693C153.629 271.153 152.274 271.384 150.749 271.384ZM163.395 271V251.364H167.883V254.636H168.087C168.445 253.503 169.059 252.629 169.928 252.016C170.806 251.393 171.807 251.082 172.932 251.082C173.188 251.082 173.474 251.095 173.789 251.121C174.113 251.138 174.381 251.168 174.594 251.21V255.467C174.398 255.399 174.087 255.339 173.661 255.288C173.243 255.229 172.839 255.199 172.447 255.199C171.603 255.199 170.844 255.382 170.171 255.749C169.506 256.107 168.982 256.605 168.599 257.244C168.215 257.884 168.023 258.621 168.023 259.456V271H163.395ZM203.307 244.818H208.05V261.923C208.05 263.798 207.607 265.447 206.721 266.871C205.843 268.294 204.607 269.406 203.013 270.207C201.42 271 199.557 271.396 197.427 271.396C195.287 271.396 193.421 271 191.827 270.207C190.233 269.406 188.998 268.294 188.12 266.871C187.242 265.447 186.803 263.798 186.803 261.923V244.818H191.546V261.527C191.546 262.618 191.785 263.589 192.262 264.442C192.748 265.294 193.43 265.963 194.307 266.449C195.185 266.926 196.225 267.165 197.427 267.165C198.628 267.165 199.668 266.926 200.546 266.449C201.432 265.963 202.114 265.294 202.591 264.442C203.069 263.589 203.307 262.618 203.307 261.527V244.818ZM217.948 244.818V271H213.205V244.818H217.948ZM89.0847 315L83.5364 295.364H88.2537L91.7054 309.17H91.8844L95.4128 295.364H100.079L103.607 309.094H103.799L107.2 295.364H111.93L106.369 315H101.549L97.8674 301.73H97.5989L93.9171 315H89.0847ZM115.161 315V295.364H119.789V315H115.161ZM117.488 292.577C116.755 292.577 116.124 292.334 115.596 291.848C115.067 291.354 114.803 290.761 114.803 290.071C114.803 289.372 115.067 288.78 115.596 288.294C116.124 287.8 116.755 287.553 117.488 287.553C118.229 287.553 118.86 287.8 119.38 288.294C119.908 288.78 120.172 289.372 120.172 290.071C120.172 290.761 119.908 291.354 119.38 291.848C118.86 292.334 118.229 292.577 117.488 292.577ZM134.353 295.364V298.943H123.065V295.364H134.353ZM125.852 290.659H130.48V309.094C130.48 309.716 130.573 310.193 130.761 310.526C130.957 310.849 131.213 311.071 131.528 311.19C131.843 311.31 132.193 311.369 132.576 311.369C132.866 311.369 133.13 311.348 133.369 311.305C133.616 311.263 133.803 311.224 133.931 311.19L134.711 314.808C134.464 314.893 134.11 314.987 133.65 315.089C133.198 315.192 132.644 315.251 131.988 315.268C130.829 315.303 129.785 315.128 128.856 314.744C127.927 314.352 127.19 313.747 126.644 312.929C126.107 312.111 125.843 311.088 125.852 309.861V290.659ZM143.273 303.494V315H138.645V288.818H143.171V298.7H143.401C143.861 297.592 144.573 296.719 145.536 296.08C146.508 295.432 147.743 295.108 149.243 295.108C150.607 295.108 151.796 295.393 152.81 295.964C153.824 296.536 154.608 297.371 155.162 298.47C155.725 299.57 156.006 300.912 156.006 302.497V315H151.378V303.213C151.378 301.892 151.037 300.865 150.356 300.132C149.682 299.391 148.736 299.02 147.518 299.02C146.699 299.02 145.966 299.199 145.319 299.557C144.68 299.906 144.177 300.413 143.81 301.078C143.452 301.743 143.273 302.548 143.273 303.494ZM70.1099 340.016C69.9906 338.899 69.4877 338.03 68.6014 337.408C67.7235 336.786 66.5815 336.474 65.1752 336.474C64.1866 336.474 63.3386 336.624 62.6312 336.922C61.9238 337.22 61.3826 337.625 61.0076 338.136C60.6326 338.648 60.4409 339.232 60.4324 339.888C60.4324 340.433 60.5559 340.906 60.8031 341.307C61.0588 341.707 61.4039 342.048 61.8386 342.33C62.2733 342.602 62.7548 342.832 63.2832 343.02C63.8116 343.207 64.3443 343.365 64.8812 343.493L67.3358 344.107C68.3244 344.337 69.2747 344.648 70.1866 345.04C71.1071 345.432 71.9295 345.926 72.6539 346.523C73.3869 347.119 73.9664 347.839 74.3926 348.683C74.8187 349.527 75.0318 350.516 75.0318 351.649C75.0318 353.183 74.6397 354.534 73.8556 355.702C73.0716 356.861 71.938 357.768 70.4551 358.425C68.9806 359.072 67.1951 359.396 65.0985 359.396C63.0616 359.396 61.2931 359.081 59.7931 358.45C58.3017 357.82 57.1341 356.899 56.2903 355.689C55.4551 354.479 55.0034 353.004 54.9352 351.266H59.6014C59.6696 352.178 59.9508 352.936 60.4451 353.541C60.9395 354.146 61.5829 354.598 62.3755 354.896C63.1767 355.195 64.0716 355.344 65.0602 355.344C66.0914 355.344 66.9949 355.19 67.7704 354.884C68.5545 354.568 69.1681 354.134 69.6113 353.58C70.0545 353.017 70.2804 352.361 70.2889 351.611C70.2804 350.929 70.0801 350.366 69.688 349.923C69.296 349.472 68.7463 349.097 68.0389 348.798C67.34 348.491 66.5218 348.219 65.5843 347.98L62.6056 347.213C60.4494 346.659 58.7449 345.82 57.492 344.695C56.2477 343.561 55.6255 342.057 55.6255 340.182C55.6255 338.639 56.0431 337.288 56.8784 336.129C57.7221 334.97 58.8684 334.071 60.3173 333.432C61.7662 332.784 63.4068 332.46 65.2392 332.46C67.0971 332.46 68.725 332.784 70.1227 333.432C71.5289 334.071 72.6326 334.962 73.4338 336.104C74.2349 337.237 74.6483 338.541 74.6738 340.016H70.1099ZM79.0556 359V339.364H83.6834V359H79.0556ZM81.3823 336.577C80.6493 336.577 80.0186 336.334 79.4902 335.848C78.9618 335.354 78.6976 334.761 78.6976 334.071C78.6976 333.372 78.9618 332.78 79.4902 332.294C80.0186 331.8 80.6493 331.553 81.3823 331.553C82.1238 331.553 82.7544 331.8 83.2743 332.294C83.8027 332.78 84.0669 333.372 84.0669 334.071C84.0669 334.761 83.8027 335.354 83.2743 335.848C82.7544 336.334 82.1238 336.577 81.3823 336.577ZM95.7292 359.345C94.1866 359.345 92.8059 358.949 91.5872 358.156C90.3684 357.364 89.4054 356.213 88.698 354.705C87.9906 353.196 87.6369 351.364 87.6369 349.207C87.6369 347.026 87.9949 345.185 88.7108 343.685C89.4352 342.176 90.411 341.038 91.6383 340.271C92.8656 339.496 94.2335 339.108 95.742 339.108C96.8926 339.108 97.8386 339.304 98.5801 339.696C99.3216 340.08 99.9096 340.544 100.344 341.089C100.779 341.626 101.116 342.134 101.354 342.611H101.546V332.818H106.187V359H101.635V355.906H101.354C101.116 356.384 100.77 356.891 100.319 357.428C99.867 357.956 99.2704 358.408 98.5289 358.783C97.7875 359.158 96.8542 359.345 95.7292 359.345ZM97.0204 355.548C98.0005 355.548 98.8358 355.284 99.5261 354.756C100.216 354.219 100.741 353.473 101.099 352.518C101.456 351.564 101.635 350.452 101.635 349.182C101.635 347.912 101.456 346.808 101.099 345.871C100.749 344.933 100.229 344.205 99.5389 343.685C98.8571 343.165 98.0176 342.905 97.0204 342.905C95.9892 342.905 95.1284 343.173 94.438 343.71C93.7477 344.247 93.2278 344.989 92.8784 345.935C92.5289 346.881 92.3542 347.963 92.3542 349.182C92.3542 350.409 92.5289 351.504 92.8784 352.467C93.2363 353.422 93.7605 354.176 94.4508 354.73C95.1497 355.276 96.0062 355.548 97.0204 355.548ZM119.811 359.384C117.843 359.384 116.142 358.974 114.71 358.156C113.287 357.33 112.192 356.162 111.425 354.653C110.658 353.136 110.274 351.351 110.274 349.297C110.274 347.277 110.658 345.504 111.425 343.979C112.2 342.445 113.283 341.251 114.672 340.399C116.061 339.538 117.693 339.108 119.568 339.108C120.779 339.108 121.921 339.304 122.994 339.696C124.077 340.08 125.031 340.676 125.858 341.486C126.693 342.295 127.35 343.327 127.827 344.58C128.304 345.824 128.543 347.307 128.543 349.028V350.447H112.448V347.328H124.107C124.098 346.442 123.906 345.653 123.531 344.963C123.156 344.264 122.632 343.714 121.959 343.314C121.294 342.913 120.519 342.713 119.632 342.713C118.686 342.713 117.855 342.943 117.139 343.403C116.423 343.855 115.865 344.452 115.465 345.193C115.073 345.926 114.872 346.732 114.864 347.609V350.332C114.864 351.474 115.073 352.455 115.49 353.273C115.908 354.082 116.492 354.705 117.242 355.139C117.992 355.565 118.869 355.778 119.875 355.778C120.548 355.778 121.158 355.685 121.703 355.497C122.249 355.301 122.722 355.016 123.122 354.641C123.523 354.266 123.825 353.801 124.03 353.247L128.351 353.733C128.078 354.875 127.558 355.872 126.791 356.724C126.033 357.568 125.061 358.224 123.877 358.693C122.692 359.153 121.337 359.384 119.811 359.384ZM132.662 359V332.818H137.29V342.611H137.482C137.721 342.134 138.057 341.626 138.492 341.089C138.927 340.544 139.515 340.08 140.256 339.696C140.998 339.304 141.944 339.108 143.094 339.108C144.611 339.108 145.979 339.496 147.198 340.271C148.425 341.038 149.397 342.176 150.113 343.685C150.837 345.185 151.199 347.026 151.199 349.207C151.199 351.364 150.846 353.196 150.138 354.705C149.431 356.213 148.468 357.364 147.249 358.156C146.03 358.949 144.65 359.345 143.107 359.345C141.982 359.345 141.049 359.158 140.307 358.783C139.566 358.408 138.969 357.956 138.518 357.428C138.074 356.891 137.729 356.384 137.482 355.906H137.214V359H132.662ZM137.201 349.182C137.201 350.452 137.38 351.564 137.738 352.518C138.104 353.473 138.628 354.219 139.31 354.756C140.001 355.284 140.836 355.548 141.816 355.548C142.839 355.548 143.695 355.276 144.385 354.73C145.076 354.176 145.596 353.422 145.945 352.467C146.303 351.504 146.482 350.409 146.482 349.182C146.482 347.963 146.307 346.881 145.958 345.935C145.608 344.989 145.089 344.247 144.398 343.71C143.708 343.173 142.847 342.905 141.816 342.905C140.827 342.905 139.988 343.165 139.297 343.685C138.607 344.205 138.083 344.933 137.725 345.871C137.376 346.808 137.201 347.912 137.201 349.182ZM160.784 359.396C159.54 359.396 158.419 359.175 157.422 358.732C156.433 358.28 155.649 357.615 155.07 356.737C154.499 355.859 154.213 354.777 154.213 353.49C154.213 352.382 154.418 351.466 154.827 350.741C155.236 350.017 155.794 349.438 156.502 349.003C157.209 348.568 158.006 348.24 158.892 348.018C159.787 347.788 160.712 347.622 161.666 347.52C162.817 347.401 163.75 347.294 164.466 347.2C165.182 347.098 165.702 346.945 166.026 346.74C166.358 346.527 166.524 346.199 166.524 345.756V345.679C166.524 344.716 166.239 343.97 165.668 343.442C165.097 342.913 164.274 342.649 163.2 342.649C162.067 342.649 161.168 342.896 160.503 343.391C159.847 343.885 159.404 344.469 159.173 345.142L154.852 344.528C155.193 343.335 155.756 342.338 156.54 341.537C157.324 340.727 158.283 340.122 159.416 339.722C160.55 339.312 161.803 339.108 163.175 339.108C164.121 339.108 165.063 339.219 166 339.44C166.938 339.662 167.794 340.028 168.57 340.54C169.345 341.043 169.968 341.729 170.436 342.598C170.914 343.467 171.152 344.554 171.152 345.858V359H166.703V356.303H166.55C166.269 356.848 165.872 357.359 165.361 357.837C164.858 358.305 164.223 358.685 163.456 358.974C162.698 359.256 161.807 359.396 160.784 359.396ZM161.986 355.996C162.915 355.996 163.72 355.812 164.402 355.446C165.084 355.071 165.608 354.577 165.975 353.963C166.35 353.349 166.537 352.68 166.537 351.956V349.642C166.392 349.761 166.145 349.872 165.796 349.974C165.455 350.077 165.071 350.166 164.645 350.243C164.219 350.32 163.797 350.388 163.379 350.447C162.962 350.507 162.6 350.558 162.293 350.601C161.602 350.695 160.985 350.848 160.439 351.061C159.894 351.274 159.463 351.572 159.148 351.956C158.833 352.331 158.675 352.817 158.675 353.413C158.675 354.266 158.986 354.909 159.608 355.344C160.23 355.778 161.023 355.996 161.986 355.996ZM175.806 359V339.364H180.293V342.636H180.497C180.855 341.503 181.469 340.629 182.338 340.016C183.216 339.393 184.218 339.082 185.343 339.082C185.598 339.082 185.884 339.095 186.199 339.121C186.523 339.138 186.791 339.168 187.004 339.21V343.467C186.808 343.399 186.497 343.339 186.071 343.288C185.654 343.229 185.249 343.199 184.857 343.199C184.013 343.199 183.254 343.382 182.581 343.749C181.916 344.107 181.392 344.605 181.009 345.244C180.625 345.884 180.433 346.621 180.433 347.456V359H175.806Z" fill="white"/>
</g>
<defs>
<filter id="filter0_d_2_2" x="67" y="51" width="105" height="105" filterUnits="userSpaceOnUse" color-interpolation-filters="sRGB">
<feFlood flood-opacity="0" result="BackgroundImageFix"/>
<feColorMatrix in="SourceAlpha" type="matrix" values="0 0 0 0 0 0 0 0 0 0 0 0 0 0 0 0 0 0 127 0" result="hardAlpha"/>
<feOffset dy="4"/>
<feGaussianBlur stdDeviation="2"/>
<feComposite in2="hardAlpha" operator="out"/>
<feColorMatrix type="matrix" values="0 0 0 0 0 0 0 0 0 0 0 0 0 0 0 0 0 0 0.25 0"/>
<feBlend mode="normal" in2="BackgroundImageFix" result="effect1_dropShadow_2_2"/>
<feBlend mode="normal" in="SourceGraphic" in2="effect1_dropShadow_2_2" result="shape"/>
</filter>
<filter id="filter1_d_2_2" x="285" y="182" width="668" height="73" filterUnits="userSpaceOnUse" color-interpolation-filters="sRGB">
<feFlood flood-opacity="0" result="BackgroundImageFix"/>
<feColorMatrix in="SourceAlpha" type="matrix" values="0 0 0 0 0 0 0 0 0 0 0 0 0 0 0 0 0 0 127 0" result="hardAlpha"/>
<feOffset dy="4"/>
<feGaussianBlur stdDeviation="2"/>
<feComposite in2="hardAlpha" operator="out"/>
<feColorMatrix type="matrix" values="0 0 0 0 0 0 0 0 0 0 0 0 0 0 0 0 0 0 0.25 0"/>
<feBlend mode="normal" in2="BackgroundImageFix" result="effect1_dropShadow_2_2"/>
<feBlend mode="normal" in="SourceGraphic" in2="effect1_dropShadow_2_2" result="shape"/>
</filter>
<filter id="filter2_d_2_2" x="285" y="279" width="668" height="73" filterUnits="userSpaceOnUse" color-interpolation-filters="sRGB">
<feFlood flood-opacity="0" result="BackgroundImageFix"/>
<feColorMatrix in="SourceAlpha" type="matrix" values="0 0 0 0 0 0 0 0 0 0 0 0 0 0 0 0 0 0 127 0" result="hardAlpha"/>
<feOffset dy="4"/>
<feGaussianBlur stdDeviation="2"/>
<feComposite in2="hardAlpha" operator="out"/>
<feColorMatrix type="matrix" values="0 0 0 0 0 0 0 0 0 0 0 0 0 0 0 0 0 0 0.25 0"/>
<feBlend mode="normal" in2="BackgroundImageFix" result="effect1_dropShadow_2_2"/>
<feBlend mode="normal" in="SourceGraphic" in2="effect1_dropShadow_2_2" result="shape"/>
</filter>
<filter id="filter3_d_2_2" x="285" y="372" width="668" height="73" filterUnits="userSpaceOnUse" color-interpolation-filters="sRGB">
<feFlood flood-opacity="0" result="BackgroundImageFix"/>
<feColorMatrix in="SourceAlpha" type="matrix" values="0 0 0 0 0 0 0 0 0 0 0 0 0 0 0 0 0 0 127 0" result="hardAlpha"/>
<feOffset dy="4"/>
<feGaussianBlur stdDeviation="2"/>
<feComposite in2="hardAlpha" operator="out"/>
<feColorMatrix type="matrix" values="0 0 0 0 0 0 0 0 0 0 0 0 0 0 0 0 0 0 0.25 0"/>
<feBlend mode="normal" in2="BackgroundImageFix" result="effect1_dropShadow_2_2"/>
<feBlend mode="normal" in="SourceGraphic" in2="effect1_dropShadow_2_2" result="shape"/>
</filter>
<filter id="filter4_d_2_2" x="18.1344" y="244.46" width="203.814" height="122.936" filterUnits="userSpaceOnUse" color-interpolation-filters="sRGB">
<feFlood flood-opacity="0" result="BackgroundImageFix"/>
<feColorMatrix in="SourceAlpha" type="matrix" values="0 0 0 0 0 0 0 0 0 0 0 0 0 0 0 0 0 0 127 0" result="hardAlpha"/>
<feOffset dy="4"/>
<feGaussianBlur stdDeviation="2"/>
<feComposite in2="hardAlpha" operator="out"/>
<feColorMatrix type="matrix" values="0 0 0 0 0 0 0 0 0 0 0 0 0 0 0 0 0 0 0.25 0"/>
<feBlend mode="normal" in2="BackgroundImageFix" result="effect1_dropShadow_2_2"/>
<feBlend mode="normal" in="SourceGraphic" in2="effect1_dropShadow_2_2" result="shape"/>
</filter>
</defs>
</svg>
